<?xml version="1.0" encoding="utf-8"?>
<!-- Generator: Adobe Illustrator 23.1.1, SVG Export Plug-In . SVG Version: 6.00 Build 0)  -->
<svg version="1.1" id="Layer_1" xmlns="http://www.w3.org/2000/svg" xmlns:xlink="http://www.w3.org/1999/xlink" x="0px" y="0px"
	 viewBox="0 0 29.17 29.02" style="enable-background:new 0 0 29.17 29.02;" xml:space="preserve">
<style type="text/css">
	.st0{fill:#BCBEC0;}
	.st1{display:none;opacity:0.18;enable-background:new    ;}
	.st2{fill:#E6E7E8;}
</style>
<g>
	<polyline class="st0" points="1.86,14.9 2.12,13.86 1.49,13.19 0.56,14.9 	"/>
	<polygon class="st0" points="27.29,20.97 28.61,18.65 27.38,18.65 	"/>
	<path class="st0" d="M0.01,17.58C0,17.5,0,17.42,0,17.34c0-3.14,2.56-5.69,5.69-5.69c0.43,0,0.84,0.05,1.25,0.14
		c1.28-2.48,3.86-4.17,6.84-4.17c3.57,0,6.57,2.43,7.44,5.73c0.61-0.27,1.28-0.41,1.99-0.41c2.79,0,5.05,2.26,5.05,5.05
		s-2.26,5.05-5.05,5.05H5.69C2.64,23.05,0.13,20.61,0.01,17.58"/>
</g>
<path class="st1" d="M0.49,18.13c0.13,3.03,2.63,5.46,5.68,5.46h17.52c2.79,0,5.05-2.26,5.05-5.05s-2.26-5.05-5.05-5.05
	c-0.72,0-1.38,0.14-1.99,0.41c-0.87-3.3-3.87-5.73-7.44-5.73c-2.98,0-5.56,1.69-6.84,4.17c-0.4-0.09-0.81-0.14-1.25-0.14
	c-3.13,0-5.69,2.54-5.69,5.69C0.49,17.97,0.49,18.05,0.49,18.13"/>
<g>
	<path class="st2" d="M0.91,15.93c0-0.08-0.01-0.16-0.01-0.24c0-3.14,2.56-5.69,5.69-5.69c0.43,0,0.84,0.05,1.25,0.14
		c1.29-2.47,3.87-4.16,6.85-4.16c3.57,0,6.57,2.43,7.44,5.73c0.61-0.27,1.28-0.41,1.99-0.41c2.79,0,5.05,2.26,5.05,5.05
		s-2.26,5.05-5.05,5.05H6.6C3.55,21.39,1.04,18.97,0.91,15.93"/>
</g>
</svg>
